<svg width="60" height="60" viewBox="0 0 60 60" fill="none" xmlns="http://www.w3.org/2000/svg">
<foreignObject x="-4" y="-4" width="68" height="68"><div xmlns="http://www.w3.org/1999/xhtml" style="backdrop-filter:blur(2px);clip-path:url(#bgblur_0_55_33_clip_path);height:100%;width:100%"></div></foreignObject><path data-figma-bg-blur-radius="4" d="M40.8511 60C46.383 60 50.9574 58.1915 54.5745 54.5745C58.1915 50.9574 60 46.383 60 40.8511V4.4681C60 3.1915 59.5745 2.12767 58.7234 1.27661C57.8723 0.425544 56.8085 0 55.5319 0C54.2553 0 53.1915 0.425544 52.3404 1.27661C51.4894 2.12767 51.0638 3.1915 51.0638 4.4681V40.8511C51.0638 43.4043 50 45.7447 47.8723 47.8723C45.7447 50 43.4043 51.0638 40.8511 51.0638H4.46809C3.19149 51.0638 2.12766 51.4894 1.2766 52.3404C0.425535 53.1915 -8.87268e-07 54.2553 -8.87268e-07 55.5319C-8.87268e-07 56.8085 0.425535 57.8723 1.2766 58.7234C2.12766 59.5745 3.19149 60 4.46809 60H40.8511Z" fill="white" fill-opacity="0.5"/>
<defs>
<clipPath id="bgblur_0_55_33_clip_path" transform="translate(4 4)"><path d="M40.8511 60C46.383 60 50.9574 58.1915 54.5745 54.5745C58.1915 50.9574 60 46.383 60 40.8511V4.4681C60 3.1915 59.5745 2.12767 58.7234 1.27661C57.8723 0.425544 56.8085 0 55.5319 0C54.2553 0 53.1915 0.425544 52.3404 1.27661C51.4894 2.12767 51.0638 3.1915 51.0638 4.4681V40.8511C51.0638 43.4043 50 45.7447 47.8723 47.8723C45.7447 50 43.4043 51.0638 40.8511 51.0638H4.46809C3.19149 51.0638 2.12766 51.4894 1.2766 52.3404C0.425535 53.1915 -8.87268e-07 54.2553 -8.87268e-07 55.5319C-8.87268e-07 56.8085 0.425535 57.8723 1.2766 58.7234C2.12766 59.5745 3.19149 60 4.46809 60H40.8511Z"/>
</clipPath></defs>
</svg>
