<svg width="438" height="84" viewBox="0 0 438 84" fill="none" xmlns="http://www.w3.org/2000/svg">
<foreignObject x="-4" y="33" width="88" height="17"><div xmlns="http://www.w3.org/1999/xhtml" style="backdrop-filter:blur(2px);clip-path:url(#bgblur_0_55_8_clip_path);height:100%;width:100%"></div></foreignObject><rect data-figma-bg-blur-radius="4" y="37" width="80" height="9" rx="4.5" fill="white" fill-opacity="0.4"/>
<foreignObject x="91" y="-4" width="256" height="92"><div xmlns="http://www.w3.org/1999/xhtml" style="backdrop-filter:blur(2px);clip-path:url(#bgblur_1_55_8_clip_path);height:100%;width:100%"></div></foreignObject><path data-figma-bg-blur-radius="4" d="M301 0C324.196 2.31934e-06 343 18.804 343 42C343 65.196 324.196 84 301 84H137C113.804 84 95 65.196 95 42C95 18.804 113.804 3.2213e-07 137 0H301ZM137 9C118.775 9 104 23.7746 104 42C104 60.2254 118.775 75 137 75H301C319.225 75 334 60.2254 334 42C334 23.7746 319.225 9 301 9H137Z" fill="white" fill-opacity="0.4"/>
<foreignObject x="354" y="33" width="88" height="17"><div xmlns="http://www.w3.org/1999/xhtml" style="backdrop-filter:blur(2px);clip-path:url(#bgblur_2_55_8_clip_path);height:100%;width:100%"></div></foreignObject><rect data-figma-bg-blur-radius="4" width="80" height="9" rx="4.5" transform="matrix(-1 0 0 1 438 37)" fill="white" fill-opacity="0.4"/>
<defs>
<clipPath id="bgblur_0_55_8_clip_path" transform="translate(4 -33)"><rect y="37" width="80" height="9" rx="4.5"/>
</clipPath><clipPath id="bgblur_1_55_8_clip_path" transform="translate(-91 4)"><path d="M301 0C324.196 2.31934e-06 343 18.804 343 42C343 65.196 324.196 84 301 84H137C113.804 84 95 65.196 95 42C95 18.804 113.804 3.2213e-07 137 0H301ZM137 9C118.775 9 104 23.7746 104 42C104 60.2254 118.775 75 137 75H301C319.225 75 334 60.2254 334 42C334 23.7746 319.225 9 301 9H137Z"/>
</clipPath><clipPath id="bgblur_2_55_8_clip_path" transform="translate(-354 -33)"><rect width="80" height="9" rx="4.5" transform="matrix(-1 0 0 1 438 37)"/>
</clipPath></defs>
</svg>
