<svg width="454" height="34" viewBox="0 0 454 34" fill="none" xmlns="http://www.w3.org/2000/svg">
<rect x="224" width="6" height="34" rx="2" fill="#D1D1D1"/>
<rect x="112" width="6" height="34" rx="2" fill="#D1D1D1"/>
<rect x="336" width="6" height="34" rx="2" fill="#D1D1D1"/>
<rect x="250" y="7" width="1" height="20" fill="#D1D1D1"/>
<rect x="272" y="7" width="1" height="20" fill="#D1D1D1"/>
<rect x="293" y="7" width="1" height="20" fill="#D1D1D1"/>
<rect x="315" y="7" width="1" height="20" fill="#D1D1D1"/>
<rect x="448" width="6" height="34" rx="2" fill="#D1D1D1"/>
<rect x="362" y="7" width="1" height="20" fill="#D1D1D1"/>
<rect x="384" y="7" width="1" height="20" fill="#D1D1D1"/>
<rect x="405" y="7" width="1" height="20" fill="#D1D1D1"/>
<rect x="427" y="7" width="1" height="20" fill="#D1D1D1"/>
<rect x="181" y="7" width="1" height="20" fill="#D1D1D1"/>
<rect x="203" y="7" width="1" height="20" fill="#D1D1D1"/>
<rect x="138" y="7" width="1" height="20" fill="#D1D1D1"/>
<rect x="159" y="7" width="1" height="20" fill="#D1D1D1"/>
<rect width="6" height="34" rx="2" fill="#D1D1D1"/>
<rect x="69" y="7" width="1" height="20" fill="#D1D1D1"/>
<rect x="91" y="7" width="1" height="20" fill="#D1D1D1"/>
<rect x="26" y="7" width="1" height="20" fill="#D1D1D1"/>
<rect x="47" y="7" width="1" height="20" fill="#D1D1D1"/>
</svg>
