<svg width="47" height="44" viewBox="0 0 47 44" fill="none" xmlns="http://www.w3.org/2000/svg">
<path fill-rule="evenodd" clip-rule="evenodd" d="M23.5 0C31.7233 0 38.4037 6.58663 38.4037 14.6945C38.4037 15.1147 38.381 15.5303 38.346 15.9416C43.4536 18.2697 47 23.3723 47 29.272C47 37.3967 40.3026 44 32.0794 44C28.8837 44 25.9225 43.0034 23.4915 41.3135C21.0748 43.0079 18.1225 44 14.9376 44C6.69732 44 0 37.3967 0 29.272C0 23.3876 3.52693 18.2943 8.62006 15.9584C8.58401 15.5417 8.56241 15.1203 8.56241 14.6945C8.56241 6.58665 15.2597 4.05871e-05 23.5 0ZM9.20162 18.9574C5.49272 20.9526 2.98413 24.8261 2.98413 29.272C2.98413 35.7918 8.32503 41.041 14.9376 41.041C17.2173 41.041 19.3476 40.4073 21.1517 39.2991C18.6668 36.6681 17.1418 33.1445 17.1418 29.272C17.1418 28.8585 17.1597 28.449 17.2045 28.0467C13.3841 26.2897 10.439 22.9882 9.20162 18.9574ZM37.7679 18.9424C36.5359 22.9802 33.5972 26.2878 29.7802 28.0467L29.8413 29.272C29.8413 33.1463 28.3222 36.6751 25.8297 39.2957C24.9664 38.7889 24.1828 38.1666 23.4949 37.4535C25.5779 35.3411 26.8571 32.4545 26.8571 29.272C26.8571 29.1947 26.8554 29.1178 26.8453 29.043C25.7693 29.2876 24.6504 29.4225 23.5 29.4225C22.3492 29.4225 21.2296 29.2884 20.153 29.0447C20.1428 29.1188 20.1429 29.1954 20.1429 29.272C20.1429 35.7918 25.4668 41.041 32.0794 41.041C38.6919 41.041 43.9989 35.775 43.9989 29.272C43.9989 24.8051 41.4784 20.9308 37.7679 18.9424ZM24.58 20.1277C22.6765 21.6445 21.2591 23.7262 20.5905 26.1158C20.0977 26.0017 19.6188 25.8526 19.1544 25.6761C20.501 26.1931 21.9656 26.4802 23.5 26.4802C25.0157 26.4802 26.4641 26.1956 27.7982 25.6845C27.349 25.8548 26.8868 25.9994 26.4112 26.1108C25.8808 24.1969 24.8621 22.4861 23.5 21.1056C23.8373 20.7568 24.1989 20.4301 24.58 20.1277ZM23.5 2.94225C16.8874 2.94229 11.5465 8.20822 11.5465 14.6945C11.5465 19.1678 14.0618 23.049 17.7759 25.0459C18.4408 22.8595 19.6118 20.8868 21.1517 19.2567C19.3477 18.151 17.2173 17.5198 14.9376 17.5198C13.9226 17.5198 12.9375 17.6438 12.0026 17.8909C11.725 16.9582 11.5721 15.9731 11.5601 14.9536C12.642 14.6918 13.7745 14.5608 14.9376 14.5608C18.1165 14.5608 21.0689 15.5516 23.4864 17.2456C25.9174 15.555 28.8822 14.5608 32.0794 14.5608C33.2242 14.5608 34.3406 14.6893 35.4077 14.9436C35.396 15.9625 35.2429 16.9475 34.9651 17.8809C34.0447 17.6404 33.0762 17.5198 32.0794 17.5198C29.2506 17.5198 26.6587 18.4847 24.619 20.0959C25.0021 19.7948 25.4064 19.5173 25.8297 19.2684C27.3723 20.8893 28.5421 22.8575 29.2071 25.0392C28.9991 25.1522 28.7868 25.258 28.5713 25.3585C32.6163 23.4725 35.4196 19.4049 35.4196 14.6945C35.4195 8.2082 30.0785 2.94225 23.5 2.94225Z" fill="#9B9B9B"/>
</svg>
