<svg width="39" height="38" viewBox="0 0 39 38" fill="none" xmlns="http://www.w3.org/2000/svg">
<path fill-rule="evenodd" clip-rule="evenodd" d="M19.502 26.4095C19.898 26.4096 20.2444 26.5427 20.5196 26.8117C20.7944 27.0804 20.9303 27.4178 20.9303 27.8032V30.8111H37.5697C37.9657 30.8111 38.3116 30.9451 38.5873 31.2142C38.8629 31.4832 39 31.8208 39 32.2067C38.9999 32.5925 38.8634 32.9301 38.5873 33.1982C38.3115 33.4659 37.9652 33.5984 37.5697 33.5984H20.9303V36.6064C20.9303 36.9922 20.7928 37.3292 20.5166 37.5979C20.2405 37.8664 19.8941 38 19.498 38C19.102 37.9999 18.7556 37.8669 18.4804 37.5979C18.2056 37.3291 18.0697 36.9917 18.0697 36.6064V27.8032C18.0697 27.4173 18.2072 27.0803 18.4834 26.8117C18.7595 26.5431 19.1059 26.4095 19.502 26.4095ZM18.7775 37.4651C18.806 37.4881 18.8355 37.5094 18.8657 37.5291L18.7775 37.4651C18.749 37.4421 18.721 37.4168 18.6942 37.3906L18.7775 37.4651ZM38.3745 32.9899L38.4412 32.9193C38.4448 32.9151 38.4485 32.911 38.452 32.9068C38.4279 32.9353 38.4022 32.9631 38.3745 32.9899ZM38.699 32.2067L38.6951 32.1064C38.695 32.1048 38.6943 32.1032 38.6941 32.1016C38.6969 32.1359 38.699 32.1711 38.699 32.2067ZM18.5608 27.1756C18.5591 27.1781 18.5576 27.1808 18.5559 27.1832C18.5755 27.1548 18.5968 27.1271 18.6197 27.1001L18.5608 27.1756Z" fill="#9B9B9B"/>
<path fill-rule="evenodd" clip-rule="evenodd" d="M10.4652 30.8111C10.8612 30.8111 11.2071 30.9451 11.4828 31.2142C11.7584 31.4832 11.8955 31.8208 11.8955 32.2067C11.8954 32.5925 11.7588 32.9301 11.4828 33.1982C11.207 33.4659 10.8606 33.5984 10.4652 33.5984H1.43032C1.03433 33.5984 0.688412 33.4644 0.412724 33.1953C0.137114 32.9263 0 32.5888 0 32.2029C6.09757e-05 31.817 0.136638 31.4794 0.412724 31.2114C0.688518 30.9436 1.03485 30.8111 1.43032 30.8111H10.4652ZM11.27 32.9899L11.3367 32.9193C11.3403 32.9151 11.3439 32.911 11.3475 32.9068C11.3234 32.9353 11.2976 32.9631 11.27 32.9899ZM11.5945 32.2067L11.5906 32.1064C11.5905 32.1048 11.5897 32.1032 11.5896 32.1016C11.5924 32.1359 11.5945 32.1711 11.5945 32.2067ZM0.548992 31.5008L0.548012 31.5027C0.57211 31.4742 0.597835 31.4464 0.625459 31.4196L0.548992 31.5008Z" fill="#9B9B9B"/>
<path fill-rule="evenodd" clip-rule="evenodd" d="M10.4671 13.2048C10.8631 13.2048 11.2096 13.3379 11.4847 13.6069C11.7595 13.8756 11.8955 14.2131 11.8955 14.5984V23.4016C11.8955 23.7874 11.7579 24.1245 11.4818 24.3931C11.2057 24.6616 10.8593 24.7952 10.4632 24.7952C10.0672 24.7952 9.72073 24.6621 9.4456 24.3931C9.17079 24.1244 9.03484 23.7869 9.03484 23.4016V20.3936H1.43032C1.03433 20.3936 0.688412 20.2596 0.412724 19.9905C0.137114 19.7215 0 19.384 0 18.9981C6.18593e-05 18.6123 0.136639 18.2747 0.412724 18.0066C0.688517 17.7388 1.03484 17.6064 1.43032 17.6064H9.03484V14.5984C9.03484 14.2126 9.17238 13.8755 9.44854 13.6069C9.72464 13.3384 10.071 13.2048 10.4671 13.2048ZM9.74265 24.2603C9.7712 24.2833 9.80069 24.3046 9.83088 24.3243L9.74265 24.2603C9.71416 24.2373 9.68618 24.2121 9.65932 24.1858L9.74265 24.2603ZM0.548992 18.296L0.548012 18.2979C0.57211 18.2694 0.597835 18.2416 0.625459 18.2148L0.548992 18.296ZM9.52599 13.9708C9.52424 13.9733 9.52281 13.976 9.52109 13.9785C9.54068 13.95 9.56194 13.9223 9.58481 13.8954L9.52599 13.9708Z" fill="#9B9B9B"/>
<path fill-rule="evenodd" clip-rule="evenodd" d="M37.5697 17.6064C37.9657 17.6064 38.3116 17.7404 38.5873 18.0095C38.8629 18.2785 39 18.616 39 19.0019C38.9999 19.3878 38.8634 19.7253 38.5873 19.9934C38.3115 20.2612 37.9652 20.3936 37.5697 20.3936H19.5C19.104 20.3936 18.7581 20.2596 18.4824 19.9905C18.2068 19.7215 18.0697 19.384 18.0697 18.9981C18.0697 18.6123 18.2063 18.2747 18.4824 18.0066C18.7582 17.7388 19.1045 17.6064 19.5 17.6064H37.5697ZM38.3745 19.7852L38.4412 19.7145C38.4448 19.7104 38.4485 19.7063 38.452 19.7021C38.4279 19.7306 38.4022 19.7584 38.3745 19.7852ZM38.699 19.0019L38.6951 18.9016C38.695 18.9 38.6943 18.8984 38.6941 18.8968C38.6969 18.9311 38.699 18.9663 38.699 19.0019ZM18.6187 18.296L18.6177 18.2979C18.6418 18.2694 18.6675 18.2416 18.6951 18.2148L18.6187 18.296Z" fill="#9B9B9B"/>
<path fill-rule="evenodd" clip-rule="evenodd" d="M28.5368 0C28.9328 5.99498e-05 29.2793 0.133135 29.5544 0.402142C29.8292 0.670864 29.9652 1.00831 29.9652 1.39365V4.40159H37.5697C37.9657 4.40159 38.3116 4.5356 38.5873 4.80469C38.8629 5.07371 39 5.41122 39 5.79714C38.9999 6.18298 38.8634 6.52058 38.5873 6.78865C38.3115 7.05641 37.9652 7.18888 37.5697 7.18888H29.9652V10.1968C29.9652 10.5827 29.8276 10.9197 29.5515 11.1883C29.2754 11.4569 28.929 11.5905 28.5329 11.5905C28.1369 11.5904 27.7904 11.4573 27.5153 11.1883C27.2405 10.9196 27.1045 10.5822 27.1045 10.1968V1.39365C27.1045 1.00781 27.2421 0.670761 27.5182 0.402142C27.7943 0.133598 28.1407 0 28.5368 0ZM27.8123 11.0556C27.8409 11.0786 27.8704 11.0998 27.9006 11.1196L27.8123 11.0556C27.7838 11.0326 27.7559 11.0073 27.729 10.981L27.8123 11.0556ZM38.3745 6.58041L38.4412 6.50973C38.4448 6.50559 38.4485 6.50149 38.452 6.49731C38.4279 6.5258 38.4022 6.55359 38.3745 6.58041ZM38.699 5.79714L38.6951 5.69685C38.695 5.69524 38.6943 5.69368 38.6941 5.69207C38.6969 5.72637 38.699 5.76153 38.699 5.79714ZM27.5957 0.766075C27.5939 0.768549 27.5925 0.771227 27.5908 0.773717C27.6104 0.745236 27.6316 0.717545 27.6545 0.690614L27.5957 0.766075Z" fill="#9B9B9B"/>
<path fill-rule="evenodd" clip-rule="evenodd" d="M19.5 4.40159C19.896 4.40159 20.2419 4.5356 20.5176 4.80469C20.7932 5.07371 20.9303 5.41122 20.9303 5.79714C20.9303 6.18299 20.7937 6.52058 20.5176 6.78865C20.2418 7.05641 19.8955 7.18888 19.5 7.18888H1.43032C1.03433 7.18888 0.688412 7.05487 0.412724 6.78578C0.137114 6.51676 0 6.17925 0 5.79332C6.10862e-05 5.40748 0.136638 5.06989 0.412724 4.80182C0.688518 4.53405 1.03485 4.40159 1.43032 4.40159H19.5ZM20.3049 6.58041L20.3715 6.50973C20.3751 6.50559 20.3788 6.50149 20.3823 6.49731C20.3582 6.5258 20.3325 6.55359 20.3049 6.58041ZM20.6294 5.79714L20.6254 5.69685C20.6253 5.69524 20.6246 5.69368 20.6245 5.69207C20.6273 5.72637 20.6294 5.76153 20.6294 5.79714ZM0.548992 5.09125L0.548012 5.09316C0.57211 5.06467 0.597835 5.03688 0.625459 5.01005L0.548992 5.09125Z" fill="#9B9B9B"/>
</svg>
